<svg width="22" height="33" viewBox="0 0 32 53" fill="none" xmlns="http://www.w3.org/2000/svg">
  <path fill-rule="evenodd" clip-rule="evenodd"
    d="M30.3781 22.5358C31.4167 23.5785 32 24.9919 32 26.4656C32 27.9393 31.4167 29.3528 30.3781 30.3955L9.46703 51.372C8.42667 52.4147 7.01584 53.0003 5.54489 53C4.07395 52.9997 2.66339 52.4134 1.62352 51.3701C0.583652 50.3269 -0.000346521 48.9121 1.54258e-07 47.4371C0.00034683 45.9621 0.58501 44.5476 1.62537 43.5049L18.6175 26.4656L1.62537 9.42639C0.614666 8.37803 0.0550183 6.97354 0.0669637 5.51543C0.078909 4.05731 0.661491 2.66223 1.68923 1.63066C2.71698 0.5991 4.10765 0.0135869 5.56172 0.000233492C7.01579 -0.0131199 8.41692 0.546756 9.46333 1.55927L30.3818 22.5321L30.3781 22.5358Z"
    fill="#000000" />
</svg>