<svg width="190" height="54" viewBox="0 0 190 54" fill="none" xmlns="http://www.w3.org/2000/svg">
  <path
    d="M44.6307 35L47.5284 17.5455H54.0739C55.4148 17.5455 56.5 17.7955 57.3295 18.2955C58.1591 18.7898 58.7358 19.4744 59.0597 20.3494C59.3835 21.2187 59.4517 22.2102 59.2642 23.3239C59.0824 24.4432 58.6818 25.4375 58.0625 26.3068C57.4489 27.1761 56.6392 27.8608 55.6335 28.3608C54.6278 28.8551 53.4517 29.1023 52.1051 29.1023H47.767L48.2017 26.5028H52.1136C52.8977 26.5028 53.5625 26.3665 54.108 26.0938C54.6591 25.821 55.0938 25.446 55.4119 24.9688C55.7301 24.4915 55.9403 23.9432 56.0426 23.3239C56.1392 22.7045 56.108 22.1591 55.9489 21.6875C55.7898 21.2159 55.4801 20.8494 55.0199 20.5881C54.5653 20.321 53.9432 20.1875 53.1534 20.1875H50.2557L47.7926 35H44.6307ZM60.0526 35L62.9503 17.5455H69.4957C70.8366 17.5455 71.9247 17.7784 72.7599 18.2443C73.5952 18.7102 74.1776 19.3636 74.5071 20.2045C74.8366 21.0398 74.9077 22.0142 74.7202 23.1278C74.5384 24.2415 74.1406 25.2102 73.527 26.0341C72.919 26.8523 72.1151 27.4858 71.1151 27.9347C70.1207 28.3835 68.9531 28.608 67.6122 28.608H62.9503L63.3935 25.983H67.6378C68.4219 25.983 69.081 25.875 69.6151 25.6591C70.1491 25.4375 70.5696 25.1165 70.8764 24.696C71.1889 24.2699 71.3963 23.7472 71.4986 23.1278C71.5952 22.5085 71.5582 21.9801 71.3878 21.5426C71.223 21.0994 70.9077 20.7642 70.4418 20.5369C69.9815 20.304 69.3594 20.1875 68.5753 20.1875H65.6776L63.2145 35H60.0526ZM70.3821 27.0909L73.3906 35H69.8622L66.9304 27.0909H70.3821ZM92.767 26.4773C92.4602 28.3295 91.8551 29.9091 90.9517 31.2159C90.054 32.517 88.9574 33.5142 87.6619 34.2074C86.3722 34.8949 84.983 35.2386 83.4943 35.2386C81.9318 35.2386 80.5909 34.875 79.4716 34.1477C78.3523 33.4148 77.5455 32.3665 77.0511 31.0028C76.5625 29.6392 76.4773 28.0028 76.7955 26.0938C77.1023 24.2472 77.7045 22.6676 78.6023 21.3551C79.5 20.0426 80.5994 19.0398 81.9006 18.3466C83.2017 17.6534 84.6051 17.3068 86.1108 17.3068C87.6619 17.3068 88.9915 17.6733 90.0994 18.4062C91.2131 19.1335 92.0142 20.1818 92.5028 21.5511C92.9972 22.9205 93.0852 24.5625 92.767 26.4773ZM89.6562 26.0938C89.8665 24.804 89.8466 23.7159 89.5966 22.8295C89.3523 21.9432 88.9176 21.2756 88.2926 20.8267C87.6676 20.3722 86.8977 20.1449 85.983 20.1449C84.9943 20.1449 84.0795 20.392 83.2386 20.8864C82.4034 21.375 81.6932 22.0909 81.108 23.0341C80.5284 23.9773 80.1307 25.125 79.9148 26.4773C79.6875 27.7727 79.7017 28.8608 79.9574 29.7415C80.2131 30.6222 80.6562 31.2869 81.2869 31.7358C81.9176 32.179 82.6875 32.4006 83.5966 32.4006C84.5795 32.4006 85.4886 32.1562 86.3239 31.6676C87.1591 31.179 87.8665 30.4659 88.446 29.5284C89.0312 28.5909 89.4347 27.446 89.6562 26.0938ZM94.3416 35L97.2393 17.5455H108.421L107.978 20.196H99.9581L99.174 24.9347H106.427L105.984 27.5852H98.7308L97.5036 35H94.3416ZM114.464 17.5455L111.566 35H108.404L111.302 17.5455H114.464ZM124.442 25.0028L124.024 27.5426H116.175L116.592 25.0028H124.442ZM126.17 35L129.067 17.5455H132.229L129.775 32.3494H137.462L137.019 35H126.17ZM145.823 17.5455L142.925 35H139.763L142.661 17.5455H145.823ZM146.349 35L149.247 17.5455H160.429L159.986 20.196H151.966L151.182 24.9347H158.435L157.991 27.5852H150.739L149.511 35H146.349ZM162.099 20.196L162.543 17.5455H176.469L176.026 20.196H170.631L168.176 35H165.04L167.494 20.196H162.099Z"
    fill="#e0e0e0" />
  <line x1="44" y1="41.5" x2="176" y2="41.5" stroke="#cccccc" />
  <path fill-rule="evenodd" clip-rule="evenodd" d="M190 28.5L182.958 42H180L187.417 28.5L180 15H182.958L190 28.5Z"
    fill="#0C667E" />
  <mask id="mask0_131_80" style="mask-type:alpha" maskUnits="userSpaceOnUse" x="0" y="0" width="36" height="54">
    <rect width="36" height="53.25" rx="18" fill="#e0e0e0" />
  </mask>
  <g mask="url(#mask0_131_80)">
    <path d="M23.25 7.53792L18.75 3L19.0147 68.9705L23.25 71.625V7.53792Z" fill="#0D677F" />
    <path d="M14.25 65.9368L14.25 7.53792L18.75 3M18.75 3L23.25 7.53792V71.625L19.0147 68.9705L18.75 3Z"
      stroke="#0D677F" />
    <path d="M10.875 23.625L7.5 20.25L7.875 68.25L10.875 70.875V23.625Z" fill="#0D677F" />
    <path d="M4.5 65.25V23.625L7.5 20.25M7.5 20.25L10.875 23.625V70.875L7.875 68.25L7.5 20.25Z" stroke="#0D677F" />
    <path d="M33.375 16.875L30 13.5L30.375 62.625L33.375 65.25V16.875Z" fill="#0D677F" />
    <path d="M27 59.625V16.875L30 13.5M30 13.5L33.375 16.875V65.25L30.375 62.625L30 13.5Z" stroke="#0D677F" />
  </g>
</svg>