<svg width="56" height="57" viewBox="0 0 56 57" fill="none" xmlns="http://www.w3.org/2000/svg">
<path d="M32.4211 4.5C32.4211 3.30653 31.9553 2.16193 31.1262 1.31802C30.297 0.474106 29.1725 0 28 0C26.8275 0 25.703 0.474106 24.8738 1.31802C24.0447 2.16193 23.5789 3.30653 23.5789 4.5V24H4.42105C3.24852 24 2.124 24.4741 1.2949 25.318C0.465788 26.1619 0 27.3065 0 28.5C0 29.6935 0.465788 30.8381 1.2949 31.682C2.124 32.5259 3.24852 33 4.42105 33H23.5789V52.5C23.5789 53.6935 24.0447 54.8381 24.8738 55.682C25.703 56.5259 26.8275 57 28 57C29.1725 57 30.297 56.5259 31.1262 55.682C31.9553 54.8381 32.4211 53.6935 32.4211 52.5V33H51.5789C52.7515 33 53.876 32.5259 54.7051 31.682C55.5342 30.8381 56 29.6935 56 28.5C56 27.3065 55.5342 26.1619 54.7051 25.318C53.876 24.4741 52.7515 24 51.5789 24H32.4211V4.5Z" fill="#474A4D"/>
</svg>
