<svg width="22" height="33" viewBox="0 0 32 53" fill="none" xmlns="http://www.w3.org/2000/svg">
  <path fill-rule="evenodd" clip-rule="evenodd"
    d="M1.61816 30.3859C0.582002 29.3459 0 27.9361 0 26.4662C0 24.9963 0.582002 23.5865 1.61816 22.5464L22.4815 1.62384C23.5195 0.583765 24.9271 -0.000346589 26.3947 1.54288e-07C27.1214 0.000171844 27.8409 0.143826 28.5122 0.422762C29.1835 0.701698 29.7934 1.11045 30.3071 1.62569C30.8208 2.14092 31.2283 2.75255 31.5062 3.42564C31.7842 4.09873 31.9271 4.82011 31.9269 5.54859C31.9268 6.27707 31.7835 6.99839 31.5052 7.67135C31.227 8.34431 30.8192 8.95574 30.3053 9.47073L13.3556 26.4662L30.309 43.4616C30.8377 43.9731 31.2595 44.5849 31.5498 45.2615C31.8401 45.9381 31.993 46.6659 31.9998 47.4024C32.0065 48.1389 31.8668 48.8694 31.589 49.5512C31.3111 50.233 30.9005 50.8525 30.3812 51.3735C29.862 51.8946 29.2444 52.3067 28.5645 52.586C27.8847 52.8652 27.1562 53.0059 26.4215 52.9998C25.6868 52.9938 24.9607 52.8411 24.2855 52.5507C23.6103 52.2603 22.9996 51.8381 22.4889 51.3085L1.61079 30.3859H1.61816Z"
    fill="#000000" />
</svg>